<svg xmlns="http://www.w3.org/2000/svg" width="1600" height="1000" viewBox="0 0 1600 1000">
  <rect width="1600" height="1000" fill="#fcfcfb"/>
  <rect width="1600" height="34" fill="#11110f"/>
  <rect y="34" width="1600" height="64" fill="#f0eee5"/>
  <rect x="0" y="98" width="62" height="902" fill="#f0eee5"/>
  <path d="M62 98H1600M62 34V1000M0 98H1600" stroke="#d2cfc5"/>
  <g fill="#11110f" font-family="Arial, sans-serif">
    <text x="88" y="73" font-size="20">Digital Twin</text>
    <text x="88" y="90" fill="#757977" font-size="11">APPROVED SCREENSHOT PLACEHOLDER</text>
  </g>
  <g transform="translate(130 150)">
    <rect width="390" height="710" fill="#f7f5ef" stroke="#d2cfc5"/>
    <rect x="425" width="390" height="710" fill="#f7f5ef" stroke="#d2cfc5"/>
    <rect x="850" width="390" height="710" fill="#f7f5ef" stroke="#d2cfc5"/>
    <g fill="#757977" font-family="Arial, sans-serif" font-size="12" letter-spacing="2">
      <text x="20" y="35">INPUTS</text><text x="445" y="35">SCHEMATIC</text><text x="870" y="35">OUTPUTS</text>
    </g>
    <g fill="#fcfcfb" stroke="#d2cfc5">
      <rect x="42" y="110" width="305" height="92"/><rect x="42" y="248" width="305" height="92"/><rect x="42" y="386" width="305" height="92"/>
      <rect x="467" y="86" width="305" height="92"/><rect x="467" y="224" width="305" height="92"/><rect x="467" y="362" width="305" height="92"/><rect x="467" y="500" width="305" height="92"/>
      <rect x="892" y="110" width="305" height="92"/><rect x="892" y="248" width="305" height="92"/><rect x="892" y="386" width="305" height="92"/>
    </g>
    <g fill="none" stroke="#2457ff" stroke-width="3">
      <path d="M347 156C410 156 404 132 467 132"/><path d="M347 294C410 294 404 270 467 270"/><path d="M772 270C835 270 829 156 892 156"/>
    </g>
    <g fill="none" stroke="#a9a59a" stroke-width="2">
      <path d="M347 432C410 432 404 408 467 408"/><path d="M772 408C835 408 829 294 892 294"/><path d="M772 546C835 546 829 432 892 432"/>
    </g>
    <g fill="#1747e6"><rect x="58" y="128" width="8" height="8"/><rect x="483" y="104" width="8" height="8"/><rect x="908" y="128" width="8" height="8"/></g>
  </g>
  <g font-family="Arial, sans-serif" text-anchor="middle">
    <text x="800" y="920" fill="#11110f" font-size="24" font-weight="700">REAL PRODUCT SCREEN GOES HERE</text>
    <text x="800" y="950" fill="#757977" font-size="14" letter-spacing="1.5">DIGITAL-TWIN.PNG · 1600 × 1000</text>
  </g>
</svg>
